<svg xmlns="http://www.w3.org/2000/svg" xmlns:xlink="http://www.w3.org/1999/xlink" version="1.2" baseProfile="tiny" x="0px" y="0px" viewBox="0 0 85 85" xml:space="preserve"><text transform="matrix(1 0 0 1 7.1079 13.5215)" opacity="0">x</text><path d=" M42.5 2.5c-11.1 0-20.4 3.8-28.4 11.6C6.3 22.1 2.5 31.4 2.5 42.5S6.3 63 14.2 70.8s17.2 11.7 28.4 11.7c6.1 0 11.6-1.2 16.7-3.6 c1.3-0.7 2.7-1.3 4-2.2c2.6-1.6 5.1-3.7 7.5-6c7.8-7.8 11.7-17.2 11.7-28.3S78.6 22 70.8 14C63.1 6.3 53.6 2.5 42.5 2.5L42.5 2.5z"/><path d=" M45.2 37.3l5.5 9.9l17.7-5.1c-1-1.2-1.9-2.3-3.2-3.4C59.8 34 53.5 31.5 46 31.5c-5.3 0-10 1.2-14.2 3.7"/><path d=" M31.8 35.1c-1.7 1-3.4 2.1-4.8 3.6C21.7 43.5 19 49.4 19 56.1v0.1l20.2-5.8L31.8 35.1L31.8 35.1z"/><line x1="31.8" y1="35.1" x2="27.3" y2="25.8"/></svg>