<svg xmlns="http://www.w3.org/2000/svg" xmlns:xlink="http://www.w3.org/1999/xlink" version="1.2" baseProfile="tiny" x="0px" y="0px" viewBox="0 0 85 85" xml:space="preserve"><text transform="matrix(1 0 0 1 7.1079 13.5215)" opacity="0">x</text><path d=" M75.2 19.4c-1.3-1.8-2.8-3.6-4.4-5.2C63 6.4 53.5 2.5 42.5 2.5c-11 0-20.4 3.9-28.3 11.7c-1.7 1.7-3.3 3.5-4.6 5.4"/><path d=" M55.2 39.4L52 42.6c-6.5 6.5-12.9 6.5-19.5 0l-4-4.1"/><line x1="5.8" y1="58.6" x2="28.5" y2="38.4"/><path d=" M9.6 19.6c-4.8 6.6-7.1 14.3-7.1 22.9c0 5.8 1.1 11.2 3.3 16.1"/><path d=" M5.8 58.6c1.9 4.4 4.7 8.5 8.5 12.1c7.8 7.8 17.2 11.7 28.3 11.7c6.1 0 11.7-1.2 16.8-3.6c1.3-0.7 2.7-1.3 4-2.2 c2.6-1.6 5.1-3.7 7.5-6c2.3-2.3 4.3-4.8 6-7.4c1-1.6 1.8-3.3 2.6-5"/><line x1="55.2" y1="39.4" x2="79.4" y2="58.4"/><path d=" M79.4 58.4c2.1-4.8 3.2-10.1 3.2-15.9c0-8.7-2.4-16.5-7.3-23.1"/><line x1="75.2" y1="19.4" x2="55.2" y2="39.4"/><line x1="28.5" y1="38.4" x2="9.6" y2="19.6"/></svg>