<svg xmlns="http://www.w3.org/2000/svg" xmlns:xlink="http://www.w3.org/1999/xlink" version="1.2" baseProfile="tiny" x="0px" y="0px" viewBox="0 0 85 85" xml:space="preserve"><text transform="matrix(1 0 0 1 7.1079 13.5215)" opacity="0">x</text><path d=" M58.1 56.1V40.5c-0.1-3-1.2-5.6-3.3-7.7c-2.2-2.2-4.8-3.3-8-3.3c-3.1 0-5.8 1.1-8 3.3c-2.1 2.1-3.2 4.7-3.3 7.7"/><path d=" M30.2 19.8c-0.5-0.5-1-0.7-1.6-0.7c-0.7 0-1.2 0.2-1.6 0.7c-0.5 0.5-0.7 1-0.7 1.6c0 0.7 0.2 1.2 0.7 1.6c0.5 0.5 1 0.7 1.6 0.7 c0.7 0 1.2-0.2 1.6-0.7c0.5-0.5 0.7-1 0.7-1.6C30.9 20.8 30.7 20.2 30.2 19.8L30.2 19.8z"/><line x1="35.6" y1="56.1" x2="35.6" y2="40.5"/><line x1="35.6" y1="40.5" x2="35.6" y2="30.3"/><path d=" M70.8 14.2C63 6.4 53.5 2.5 42.5 2.5c-11 0-20.4 3.9-28.3 11.7C6.4 22.1 2.5 31.5 2.5 42.5c0 11.1 3.9 20.5 11.7 28.3 s17.2 11.7 28.3 11.7c6.1 0 11.7-1.2 16.8-3.6c1.3-0.7 2.7-1.3 4-2.2c2.6-1.6 5.1-3.7 7.5-6c7.8-7.8 11.7-17.2 11.7-28.3 C82.5 31.5 78.6 22.1 70.8 14.2L70.8 14.2z"/><line x1="28.2" y1="56.1" x2="28.2" y2="30.3"/></svg>