<svg xmlns="http://www.w3.org/2000/svg" xmlns:xlink="http://www.w3.org/1999/xlink" version="1.2" baseProfile="tiny" x="0px" y="0px" viewBox="0 0 85 85" xml:space="preserve"><text transform="matrix(1 0 0 1 7.1079 13.5215)" opacity="0">x</text><path d=" M2.5 42.5c0-22.1 17.9-40 40-40s40 17.9 40 40s-17.8 40.1-40 40.1C20.4 82.5 2.5 64.6 2.5 42.5"/><path d=" M27.3 22c-3.2 0-5.8 2.6-5.8 5.7c0 3.2 2.6 5.7 5.8 5.7s5.8-2.6 5.8-5.7S30.5 22 27.3 22z"/><path d=" M57.9 22c-3.2 0-5.8 2.6-5.8 5.7c0 3.2 2.6 5.7 5.8 5.7s5.8-2.6 5.8-5.7C63.6 24.6 61.1 22 57.9 22z"/><path d=" M69.3 44.6l-6.2 5l-5.2-5.2l-5.2 5.2l-4.9-5.2l-5.2 5.2l-5.3-5.2l-5 5.2L27 44.4l-5 5.2l-5.8-4.8c0 0 3.5 24.2 26.4 24.2 S69.3 44.6 69.3 44.6z"/></svg>